<svg width="41" height="41" viewBox="0 0 41 41" fill="none" xmlns="http://www.w3.org/2000/svg">
<g id="fi_3182554" clip-path="url(#clip0_151_1260)">
<g id="Group">
<g id="Group_2">
<path id="Vector" d="M38.4426 21.6616C38.4426 32.268 30.7588 38.5053 20.1525 38.5053C13.1134 38.5053 6.66877 37.0791 3.32502 31.4314C1.63044 28.5691 0.657715 25.2289 0.657715 21.6616C0.657715 11.0553 9.25586 2.45703 19.8623 2.45703C28.1357 2.45703 35.1873 7.6888 37.889 15.0244C38.6509 17.0929 38.4426 19.3286 38.4426 21.6616Z" fill="#FFDC64"/>
</g>
<path id="Vector_2" d="M39.0669 21.6614C39.0669 21.6605 39.0669 21.6596 39.0669 21.6586C39.0666 19.5307 38.7132 17.3997 38.0165 15.3844L38.016 15.3839C37.9744 15.2637 37.9316 15.144 37.8878 15.0247C37.4052 13.7146 35.4666 14.076 35.4714 15.4721C35.4715 15.4949 35.4716 15.5176 35.4716 15.5404C35.4716 15.719 35.4687 15.897 35.4638 16.0745C35.2309 16.1549 34.9918 16.2251 34.7484 16.2849L31.4835 13.0201C31.4835 13.0201 31.4835 13.0201 31.4835 13.02L27.1078 8.64436C27.3607 7.58081 27.7958 6.59607 28.5121 5.87991L29.4345 5.00886C28.1841 4.28856 26.8446 3.70606 25.4372 3.27979C23.4853 5.39768 22.5997 8.58108 22.8053 12.7502C22.8468 13.5909 22.9301 14.3885 23.0293 15.1038C24.075 15.2487 24.9446 15.4274 25.5158 15.559C24.8656 15.4136 23.9776 15.2352 23.0293 15.1038C22.314 15.0047 21.5164 14.9213 20.6756 14.8799C16.3446 14.6666 13.0764 15.6299 10.9624 17.7438C8.84853 19.8577 7.88501 23.1257 8.09866 27.4569C8.13892 28.2735 8.21874 29.0486 8.3141 29.7479C7.61487 29.6525 6.83964 29.5727 6.02305 29.5324C5.01014 29.4826 4.05552 29.4971 3.16012 29.5756C2.67727 29.1244 2.21744 28.6489 1.7832 28.1505C1.96603 28.6599 2.17476 29.169 2.40066 29.6613C2.40034 29.6614 2.39995 29.6614 2.39964 29.6615C3.03489 31.0459 3.82915 32.3421 4.76037 33.5258H4.76169C6.15422 35.296 7.87377 36.8412 9.84903 38.0507V38.0511C12.8611 39.8952 16.3146 40.8658 19.8625 40.8658C30.5534 40.866 39.0669 32.1821 39.0669 21.6614ZM16.193 31.2687C15.3014 31.228 13.5962 30.8634 12.5316 30.6181C12.3619 29.7457 12.1715 28.5215 12.1105 27.1864C12.0877 26.6884 12.0823 26.15 12.1067 25.5974L16.2241 29.7148L17.782 31.2727C17.2294 31.297 16.691 31.2915 16.193 31.2687ZM19.8106 31.027L12.3523 23.5687C12.5355 22.7084 12.8318 21.8898 13.2924 21.2112L18.0725 25.9913L22.1681 30.0869C21.4897 30.5474 20.6709 30.8438 19.8106 31.027ZM23.3053 28.9496L14.4302 20.0745C15.0858 19.6312 15.8721 19.3428 16.7005 19.1607L22.2557 24.7159L24.2259 26.6862C24.0412 27.5128 23.7491 28.2962 23.3053 28.9496ZM24.4862 24.6722L23.3928 23.5788L18.7167 18.9026C19.304 18.8718 19.877 18.8738 20.4049 18.892C21.9966 18.9469 24.0447 19.4268 24.0447 19.4268C24.2161 20.285 24.4159 21.5258 24.4838 22.9019C24.5111 23.4546 24.5176 24.0563 24.4862 24.6722ZM30.8997 16.562C29.3773 16.4558 28.0262 16.1783 27.2532 15.9931C27.0833 15.1362 26.8878 13.9105 26.8208 12.5522C26.7913 11.9564 26.786 11.3037 26.8264 10.6375L32.7624 16.5735C32.1139 16.6119 31.4792 16.6024 30.8997 16.562Z" fill="#FFC305"/>
<g id="Group_3">
<g id="Group_4">
<path id="Vector_3" d="M11.812 17.5635L12.949 16.4265L24.7776 28.255L23.6406 29.392L11.812 17.5635Z" fill="#05CDFF"/>
</g>
<g id="Group_5">
<path id="Vector_4" d="M14.541 14.835L15.678 13.698L27.5066 25.5266L26.3696 26.6636L14.541 14.835Z" fill="white"/>
</g>
<g id="Group_6">
<path id="Vector_5" d="M22.8243 21.1724C22.1079 21.1724 21.7491 22.0385 22.2557 22.5451L26.3747 26.6641L27.5119 25.5268L23.3929 21.4079C23.2421 21.257 23.0376 21.1724 22.8243 21.1724Z" fill="#E8D6FF"/>
</g>
<g id="Group_7">
<path id="Vector_6" d="M23.8657 5.51221L25.0027 4.37521L36.8313 16.2038L35.6943 17.3408L23.8657 5.51221Z" fill="#F5415F"/>
</g>
<g id="Group_8">
<path id="Vector_7" d="M9.02588 20.3491L10.1629 19.2121L21.9914 31.0407L20.8544 32.1777L9.02588 20.3491Z" fill="#F5415F"/>
</g>
<g id="Group_9">
<path id="Vector_8" d="M18.6412 22.4478C17.9248 22.4478 17.566 23.3139 18.0726 23.8205L23.6456 29.3935L24.7828 28.2562L19.2098 22.6832C19.059 22.5325 18.8544 22.4478 18.6412 22.4478Z" fill="#05ACFF"/>
</g>
<path id="Vector_9" d="M15.6812 13.6968L27.5115 25.5271L15.6812 13.6968Z" fill="white"/>
<g id="Group_10">
<path id="Vector_10" d="M30.346 11.9865L35.699 17.3396L36.8363 16.2024L31.4832 10.8493C31.3324 10.6984 31.1279 10.6138 30.9146 10.6138C30.1982 10.6138 29.8394 11.48 30.346 11.9865Z" fill="#CD2846"/>
</g>
<g id="Group_11">
<path id="Vector_11" d="M16.7926 26.1714C16.0762 26.1714 15.7174 27.0375 16.224 27.5441L20.8593 32.1795L21.9965 31.0423L17.3612 26.407C17.2104 26.2561 17.0058 26.1714 16.7926 26.1714Z" fill="#CD2846"/>
</g>
<g id="Group_12">
<g id="Group_13">
<path id="Vector_12" d="M27.2597 13.8564C27.0883 12.9981 26.8885 11.7574 26.8206 10.3813C26.7137 8.2158 26.9204 5.30036 28.5117 3.70909L25.6688 0.866211C23.5549 2.98013 22.5913 6.24811 22.805 10.5793C22.8465 11.4201 22.9297 12.2177 23.0289 12.933C24.8753 13.1888 26.1731 13.5502 26.2474 13.5712L27.2597 13.8564Z" fill="#265CDE"/>
</g>
<g id="Group_14">
<path id="Vector_13" d="M37.4994 12.6966C35.9215 14.2745 33.0368 14.5403 30.8996 14.3912C28.5284 14.2258 26.5701 13.6443 26.5701 13.6443C26.4957 13.6233 24.8754 13.1889 23.029 12.9331C22.3137 12.834 21.5162 12.7506 20.6754 12.7092C16.3444 12.4959 13.0762 13.4592 10.9622 15.5731C8.84831 17.687 7.88479 20.955 8.09844 25.2862C8.1387 26.1028 8.21853 26.8779 8.31388 27.5772C10.1932 27.8334 11.5198 28.2026 11.595 28.2238L12.5399 28.49C12.3682 27.6151 12.1726 26.3721 12.1105 25.0155C12.0127 22.8757 12.2273 19.9937 13.8052 18.4158C15.3831 16.8379 18.2644 16.6473 20.4049 16.7211C21.9966 16.7761 24.0447 17.2559 24.0447 17.2559L25.0571 17.5411C25.1313 17.5621 26.4291 17.9235 28.2755 18.1793C28.9908 18.2784 29.7883 18.3617 30.6291 18.4031C31.0228 18.4226 31.407 18.4323 31.783 18.4323C35.5442 18.4323 38.4204 17.4612 40.3423 15.5394L37.4994 12.6966Z" fill="#0037BD"/>
</g>
<g id="Group_15">
<path id="Vector_14" d="M13.6314 32.8943C11.752 32.6381 10.4253 32.2689 10.3502 32.2477L9.40674 31.9819C9.57474 32.8368 9.76521 34.0466 9.83122 35.3834C9.87086 36.1874 9.86712 37.0946 9.76552 37.9992C10.9484 38.7317 12.2165 39.3392 13.5519 39.8037C13.8316 38.4328 13.931 36.892 13.8468 35.1854C13.8066 34.3689 13.7267 33.5936 13.6314 32.8943Z" fill="#0037BD"/>
</g>
<g id="Group_16">
<path id="Vector_15" d="M28.2754 18.1792C26.429 17.9234 25.1313 17.562 25.0569 17.5411L24.0446 17.2559C24.216 18.114 24.4158 19.3549 24.4837 20.7309C24.5905 22.8965 24.3838 25.8119 22.7926 27.4031C21.2148 28.9809 18.3329 29.1957 16.1929 29.0978C14.8361 29.0358 11.595 28.2236 11.595 28.2236C11.5198 28.2024 10.1932 27.8332 8.31384 27.577C7.61461 27.4816 6.83938 27.4018 6.02279 27.3616C4.39734 27.2815 2.92172 27.3672 1.60059 27.6171C2.03802 28.9594 2.61919 30.2365 3.32615 31.4306C4.16731 31.3438 5.00504 31.3395 5.75218 31.3736C6.99591 31.4305 9.02188 31.8516 9.35866 31.9606C9.64051 32.0518 10.3422 32.2464 10.3502 32.2478C10.4253 32.269 11.752 32.6382 13.6314 32.8944C14.3306 32.9898 15.1058 33.0696 15.9224 33.1099C16.3161 33.1293 16.7002 33.139 17.0762 33.139C20.8375 33.139 23.7137 32.1678 25.6355 30.246C27.7494 28.1321 28.713 24.8641 28.4994 20.5329C28.4578 19.692 28.3745 18.8945 28.2754 18.1792Z" fill="#265CDE"/>
</g>
</g>
</g>
<g id="Group_17">
<path id="Vector_16" d="M32.4866 20.4001C33.3197 20.3789 34.3363 20.3246 35.2177 20.1959C36.1455 20.0603 36.9624 20.8224 36.8894 21.7572C36.7501 23.5445 36.0867 26.3389 33.6754 29.3159C32.7837 30.4166 31.0032 29.7379 31.068 28.3227C31.1618 26.2727 31.2136 23.8056 31.0586 21.9857C30.987 21.1453 31.6434 20.4216 32.4866 20.4001Z" fill="#FFDC64"/>
<path id="Vector_17" d="M16.2671 36.9443V36.6455C16.2671 35.7775 16.9868 35.0841 17.8543 35.1143C19.453 35.1699 22.0466 35.0663 24.632 34.138C25.2759 33.9068 25.7984 34.687 25.3454 35.1997C23.9037 36.8313 21.3711 38.788 17.6695 38.4717C16.8766 38.4039 16.2671 37.7401 16.2671 36.9443Z" fill="#FFDC64"/>
</g>
</g>
</g>
<defs>
<clipPath id="clip0_151_1260">
<rect width="40" height="40" fill="white" transform="translate(0.5 0.866211)"/>
</clipPath>
</defs>
</svg>
