<svg width="45" height="45" viewBox="0 0 45 45" fill="none" xmlns="http://www.w3.org/2000/svg">
<g id="fi_10620390" clip-path="url(#clip0_152_1463)">
<g id="Group">
<g id="Group_2">
<path id="Vector" d="M34.6466 35.0178C41.3577 28.3067 41.3577 17.4258 34.6466 10.7146C27.9355 4.00353 17.0546 4.00353 10.3435 10.7146C3.63233 17.4258 3.63233 28.3067 10.3435 35.0178C17.0546 41.7289 27.9355 41.7289 34.6466 35.0178Z" fill="#FD4755"/>
<path id="Vector_2" d="M33.0186 33.3893C38.8304 27.5776 38.8304 18.1548 33.0186 12.3431C27.2068 6.53131 17.7841 6.53131 11.9724 12.3431C6.16059 18.1548 6.16059 27.5776 11.9724 33.3893C17.7841 39.2011 27.2068 39.2011 33.0186 33.3893Z" fill="#FE646F"/>
<path id="Vector_3" fill-rule="evenodd" clip-rule="evenodd" d="M39.6875 22.8662H26.2228H25.3634H24.77H22.5V25.1362V26.489V26.5889V40.0537C23.5889 40.0537 24.6541 39.9525 25.6868 39.7589C26.2544 39.6525 26.8123 39.5181 27.3587 39.3574C27.5568 39.2991 27.7534 39.2374 27.9484 39.1723C28.6134 38.9502 29.2603 38.6885 29.8863 38.3901C30.462 38.1157 31.0201 37.8102 31.5582 37.4758C31.7575 37.352 31.9542 37.2241 32.1479 37.0925C32.8306 36.6286 33.4782 36.1168 34.0858 35.5621C34.6834 35.0166 35.2421 34.4294 35.7578 33.8052C35.9612 33.559 36.1578 33.307 36.3475 33.0495C37.4232 31.5892 38.2734 29.9526 38.8469 28.1911C39.1622 27.2224 39.3938 26.216 39.5332 25.1803C39.6349 24.4235 39.6875 23.651 39.6875 22.8662Z" fill="#60B7FF"/>
<path id="Vector_4" fill-rule="evenodd" clip-rule="evenodd" d="M37.3842 22.8662H26.2228H25.3634H24.77H22.5V25.1362V26.489V26.5889V37.7503C30.7204 37.7504 37.3842 31.0866 37.3842 22.8662Z" fill="#8AC9FE"/>
<path id="Vector_5" fill-rule="evenodd" clip-rule="evenodd" d="M22.5 5.67871V19.1434V19.2433V20.5963V22.8662H24.77H25.3634H26.2227H39.6875C39.6875 13.3738 31.9924 5.67871 22.5 5.67871Z" fill="#00E499"/>
<path id="Vector_6" fill-rule="evenodd" clip-rule="evenodd" d="M22.5 7.98193V19.1433V19.2433V20.5962V22.8661H24.77H25.3634H26.2227H37.3841C37.3842 14.6458 30.7204 7.98193 22.5 7.98193Z" fill="#6CF5C2"/>
<path id="Vector_7" fill-rule="evenodd" clip-rule="evenodd" d="M5.3125 22.8662H18.7772H20.23H22.5V20.5963V19.2433V19.1434V5.67871C21.4069 5.67871 20.3376 5.78072 19.3011 5.97588C19.0809 6.0173 18.8622 6.06302 18.6449 6.11278C15.9688 6.72603 13.5309 7.96405 11.493 9.66509C10.9263 10.1381 10.3905 10.6469 9.88919 11.1881C9.42942 11.6844 8.99853 12.2078 8.59935 12.7557C7.91116 13.7003 7.31691 14.7176 6.83033 15.7941C5.85528 17.951 5.3125 20.3452 5.3125 22.8662Z" fill="#FFD064"/>
<path id="Vector_8" fill-rule="evenodd" clip-rule="evenodd" d="M7.61572 22.8661H18.7771H20.23H22.4999V20.5962V19.2433V19.1433V7.98193C14.2796 7.98193 7.61572 14.6458 7.61572 22.8661Z" fill="#FFE177"/>
<path id="Vector_9" fill-rule="evenodd" clip-rule="evenodd" d="M23.1875 43.4912C23.1875 43.8709 22.8797 44.1787 22.5 44.1787C22.1203 44.1787 21.8125 43.8709 21.8125 43.4912V23.5537H1.875C1.49533 23.5537 1.1875 23.2459 1.1875 22.8662C1.1875 22.4865 1.49533 22.1787 1.875 22.1787H21.8125V2.24121C21.8125 1.86154 22.1203 1.55371 22.5 1.55371C22.8797 1.55371 23.1875 1.86154 23.1875 2.24121V22.1787H43.125C43.5047 22.1787 43.8125 22.4865 43.8125 22.8662C43.8125 23.2459 43.5047 23.5537 43.125 23.5537H23.1875V43.4912Z" fill="#9FACBA"/>
</g>
<g id="Group_3">
<path id="Vector_10" d="M23.0898 26.5427C25.1192 26.2138 26.4976 24.302 26.1686 22.2727C25.8396 20.2433 23.9279 18.8649 21.8985 19.1939C19.8692 19.5229 18.4908 21.4346 18.8198 23.464C19.1487 25.4933 21.0605 26.8717 23.0898 26.5427Z" fill="#FE646F"/>
<path id="Vector_11" fill-rule="evenodd" clip-rule="evenodd" d="M22.5002 19.1436C20.4441 19.1436 18.7773 20.8103 18.7773 22.8664C18.7773 24.9224 20.4441 26.5892 22.5002 26.5892C22.6455 26.5892 22.7888 26.5806 22.9298 26.5643C21.0763 26.3513 19.6367 24.7771 19.6367 22.8664C19.6367 20.9556 21.0763 19.3814 22.9298 19.1684C22.7888 19.1521 22.6455 19.1436 22.5002 19.1436Z" fill="#FD4755"/>
<path id="Vector_12" fill-rule="evenodd" clip-rule="evenodd" d="M24.0824 23.5536C24.4621 23.5536 24.7699 23.2458 24.7699 22.8661C24.7699 22.4865 24.4621 22.1786 24.0824 22.1786H23.1874V21.2837C23.1874 20.904 22.8796 20.5962 22.4999 20.5962C22.1203 20.5962 21.8124 20.904 21.8124 21.2837V22.1786H20.9175C20.5378 22.1786 20.23 22.4865 20.23 22.8661C20.23 23.2458 20.5378 23.5536 20.9175 23.5536H21.8124V24.4486C21.8124 24.8283 22.1203 25.1361 22.4999 25.1361C22.8796 25.1361 23.1874 24.8283 23.1874 24.4486V23.5536H24.0824Z" fill="#ECEFF1"/>
</g>
<g id="Group_4">
<path id="Vector_13" fill-rule="evenodd" clip-rule="evenodd" d="M3.34968 11.9984L7.45526 10.8916C8.22578 10.6839 8.97747 10.5916 9.64684 11.0259C10.3932 11.51 11.5754 12.4368 12.8708 13.047C13.3322 13.3461 13.5115 13.9364 13.2366 14.4126C12.9617 14.8888 12.4573 15.0371 11.871 14.7786L12.3264 14.9823C12.8483 15.2156 13.3691 15.2751 13.9207 15.1251L17.8708 14.0505C20.9413 13.2152 20.6938 15.6996 19.665 16.0066L12.4411 18.1633C11.7767 18.3616 11.1307 18.2763 10.5303 17.9296L6.35552 15.5193L4.43224 16.0347C4.06245 16.1337 3.68003 15.913 3.58094 15.5432L2.85915 12.8493C2.76015 12.4799 2.98041 12.0979 3.34968 11.9984Z" fill="#F6DCCD"/>
<path id="Vector_14" fill-rule="evenodd" clip-rule="evenodd" d="M13.0985 14.6041C12.8092 14.9243 12.3697 14.9989 11.871 14.779C11.1864 14.3868 10.5041 13.9899 9.82078 13.5954C9.63773 13.4898 9.57509 13.2557 9.6807 13.0727C9.78632 12.8897 10.0204 12.827 10.2034 12.9327L13.0985 14.6041Z" fill="#F1CBBC"/>
<path id="Vector_15" fill-rule="evenodd" clip-rule="evenodd" d="M3.34968 11.9984L7.45526 10.8916C8.22578 10.6839 8.97747 10.5916 9.64684 11.0259C10.0462 11.2848 10.5702 11.6706 11.1697 12.0668L3.22017 14.1968L2.85915 12.8494C2.76015 12.4799 2.98041 12.0979 3.34968 11.9984Z" fill="#F1CBBC"/>
<path id="Vector_16" fill-rule="evenodd" clip-rule="evenodd" d="M4.00399 10.9723L5.48813 16.7077C5.55989 16.985 5.39171 17.2706 5.11439 17.3424L4.01035 17.6281C3.73303 17.6999 3.44737 17.5317 3.3757 17.2544L1.89156 11.5189C1.8198 11.2416 1.98798 10.956 2.2653 10.8842L3.36943 10.5986C3.64666 10.5268 3.93223 10.695 4.00399 10.9723Z" fill="#D1D1D6"/>
<path id="Vector_17" fill-rule="evenodd" clip-rule="evenodd" d="M4.56964 14.7913L4.83235 15.8064L5.09205 16.8103C5.16364 17.087 4.99632 17.372 4.72003 17.4445L5.1144 17.3424C5.39172 17.2706 5.5599 16.985 5.48814 16.7077L5.22749 15.7005L4.70413 13.6779L4.18017 11.6532L4.004 10.9723C3.94187 10.732 3.7192 10.5737 3.48047 10.5824L3.78555 11.7613L4.30891 13.7837L4.56955 14.791L4.56964 14.7913Z" fill="#B1B1B5"/>
<path id="Vector_18" fill-rule="evenodd" clip-rule="evenodd" d="M3.16074 11.5435C2.96635 11.5207 2.79035 11.6598 2.76758 11.8542C2.7448 12.0486 2.88394 12.2246 3.07833 12.2474C3.27272 12.2701 3.44872 12.131 3.47149 11.9366C3.49427 11.7423 3.35513 11.5662 3.16074 11.5435Z" fill="#685E68"/>
</g>
<g id="Group_5">
<path id="Vector_19" fill-rule="evenodd" clip-rule="evenodd" d="M14.8955 12.4148C13.3213 11.4902 10.4254 9.36793 10.3867 7.25043C10.3437 4.89299 12.9935 3.82384 14.9869 5.85076C16.98 3.8241 19.6297 4.89256 19.587 7.25C19.5488 9.36775 16.6525 11.4901 15.0783 12.4148C15.0203 12.4489 14.9534 12.4489 14.8955 12.4148Z" fill="#FE646F"/>
<path id="Vector_20" fill-rule="evenodd" clip-rule="evenodd" d="M14.8953 12.4149C14.8091 12.3643 14.7188 12.3099 14.6255 12.2523C16.2384 11.2577 18.8282 9.25187 18.8644 7.25004C18.8888 5.89859 18.0282 4.97098 16.9139 4.80718C18.3546 4.60342 19.6165 5.6174 19.5869 7.25004C19.5487 9.36771 16.6524 11.4901 15.0782 12.4149C15.0202 12.4489 14.9533 12.4489 14.8953 12.4149Z" fill="#FD4755"/>
</g>
<g id="Group_6">
<path id="Vector_21" fill-rule="evenodd" clip-rule="evenodd" d="M30.8988 11.2599C31.3447 11.366 31.7706 11.5428 32.161 11.7832L32.9811 11.4189L33.9479 12.3855L33.5837 13.2053C33.8241 13.5957 34.001 14.0218 34.1071 14.4678L34.9439 14.7899V16.1569L34.1069 16.4791C34.0008 16.9251 33.824 17.351 33.5836 17.7413L33.9479 18.5615L32.9813 19.5282L32.1615 19.164C31.7711 19.4044 31.345 19.5812 30.899 19.6873L30.5769 20.5241H29.2099L28.8877 19.6872C28.4417 19.581 28.0158 19.4043 27.6256 19.1639L26.8054 19.5282L25.8387 18.5616L26.2029 17.7416C25.9625 17.3513 25.7857 16.9251 25.6795 16.4791L24.8428 16.157V14.7899L25.6796 14.4678C25.7858 14.0218 25.9625 13.5958 26.2029 13.2055L25.8387 12.3855L26.8053 11.4188L27.6255 11.7831C28.0158 11.5428 28.4417 11.3659 28.8877 11.2598L29.2099 10.4229H30.5769L30.8988 11.2599Z" fill="#FFE177"/>
<path id="Vector_22" fill-rule="evenodd" clip-rule="evenodd" d="M27.6252 19.1637L26.805 19.528L26.6788 19.4018L27.4478 19.0603C27.5061 19.0961 27.5652 19.1306 27.6252 19.1637ZM30.8987 11.2598C31.3446 11.3659 31.7705 11.5427 32.1608 11.7831L31.9277 11.8866C31.5374 11.6463 30.934 11.3659 30.4881 11.2598L30.1659 10.4229H30.5765L30.8987 11.2598ZM32.1611 19.1638C31.7707 19.4043 31.3446 19.581 30.8986 19.6872L30.5765 20.5239H30.1659L30.488 19.6872C30.934 19.581 31.5375 19.3007 31.9279 19.0603L32.1611 19.1638ZM26.6787 11.545L26.805 11.4187L27.6251 11.783C27.5652 11.8161 27.506 11.8506 27.4477 11.8865L26.6787 11.545ZM32.6967 11.545L32.981 11.4187L33.9477 12.3853L33.5836 13.2052C33.824 13.5956 34.0008 14.0217 34.107 14.4677L34.9438 14.7898V16.1568L34.1068 16.479C34.0007 16.9249 33.8239 17.3508 33.5835 17.7411L33.9478 18.5613L32.9812 19.528L32.6968 19.4018L33.5371 18.5614L33.1728 17.7412C33.4132 17.3509 33.59 16.9251 33.6961 16.479L34.5331 16.1569V14.7899L33.6963 14.4678C33.5901 14.0217 33.4134 13.5957 33.1729 13.2052L33.5371 12.3854L32.6967 11.545Z" fill="#FFD064"/>
<path id="Vector_23" d="M29.8932 17.8577C31.2098 17.8577 32.2771 16.7903 32.2771 15.4738C32.2771 14.1572 31.2098 13.0898 29.8932 13.0898C28.5766 13.0898 27.5093 14.1572 27.5093 15.4738C27.5093 16.7903 28.5766 17.8577 29.8932 17.8577Z" fill="#ECEFF1"/>
<path id="Vector_24" fill-rule="evenodd" clip-rule="evenodd" d="M29.8932 13.0898C28.5765 13.0898 27.5093 14.157 27.5093 15.4738C27.5093 16.7905 28.5764 17.8577 29.8932 17.8577C29.957 17.8577 30.0203 17.8551 30.0828 17.8502C28.8548 17.7536 27.8885 16.7266 27.8885 15.4738C27.8885 14.221 28.8548 13.194 30.0828 13.0974C30.0203 13.0923 29.957 13.0898 29.8932 13.0898Z" fill="#D1D1D6"/>
</g>
<g id="Group_7">
<path id="Vector_25" fill-rule="evenodd" clip-rule="evenodd" d="M26.0403 36.8896H27.5943C27.7892 36.8896 27.9481 37.0485 27.9481 37.2435V40.8747C27.9481 41.0695 27.7892 41.2285 27.5943 41.2285H26.0403C25.8455 41.2285 25.6865 41.0696 25.6865 40.8747V37.2435C25.6865 37.0486 25.8454 36.8896 26.0403 36.8896Z" fill="#FE646F"/>
<path id="Vector_26" fill-rule="evenodd" clip-rule="evenodd" d="M27.0049 36.8896H27.5946C27.7894 36.8896 27.9484 37.0485 27.9484 37.2435V40.8747C27.9484 41.0695 27.7895 41.2285 27.5946 41.2285H27.0049C27.1998 41.2285 27.3587 41.0696 27.3587 40.8747V37.2435C27.3587 37.0486 27.1998 36.8896 27.0049 36.8896Z" fill="#FD4755"/>
<path id="Vector_27" fill-rule="evenodd" clip-rule="evenodd" d="M31.7941 34.6167C31.2761 34.6167 30.7581 34.6167 30.24 34.6167C30.0452 34.6167 29.8862 34.7757 29.8862 34.9705V40.8749C29.8862 41.0698 30.0451 41.2287 30.24 41.2287H31.7941C31.9889 41.2287 32.1479 41.0698 32.1479 40.8749C32.1479 38.7858 32.1479 37.0596 32.1479 34.9705C32.1479 34.7757 31.9889 34.6167 31.7941 34.6167Z" fill="#FFE177"/>
<path id="Vector_28" fill-rule="evenodd" clip-rule="evenodd" d="M31.7943 34.6167H31.2046C31.3994 34.6167 31.5584 34.7757 31.5584 34.9705V40.8749C31.5584 41.0698 31.3995 41.2287 31.2046 41.2287H31.7943C31.9891 41.2287 32.1481 41.0698 32.1481 40.8749C32.1481 38.7858 32.1481 37.0596 32.1481 34.9705C32.1481 34.7757 31.9891 34.6167 31.7943 34.6167Z" fill="#FFD064"/>
<path id="Vector_29" fill-rule="evenodd" clip-rule="evenodd" d="M35.9937 32.2432H34.4397C34.2448 32.2432 34.0859 32.4021 34.0859 32.597V40.8752C34.0859 41.0701 34.2448 41.229 34.4397 41.229H35.9937C36.1886 41.229 36.3476 41.0701 36.3476 40.8752V32.597C36.3476 32.4021 36.1887 32.2432 35.9937 32.2432Z" fill="#6CF5C2"/>
<path id="Vector_30" fill-rule="evenodd" clip-rule="evenodd" d="M35.994 32.2427H35.4043C35.5992 32.2427 35.7581 32.4016 35.7581 32.5965V40.8747C35.7581 41.0696 35.5992 41.2285 35.4043 41.2285H35.994C36.1888 41.2285 36.3478 41.0696 36.3478 40.8747V32.5965C36.3478 32.4017 36.1889 32.2427 35.994 32.2427Z" fill="#00E499"/>
<path id="Vector_31" fill-rule="evenodd" clip-rule="evenodd" d="M38.639 30.1074H40.1931C40.3879 30.1074 40.5469 30.2663 40.5469 30.4612V40.8748C40.5469 41.0696 40.388 41.2286 40.1931 41.2286H38.639C38.4441 41.2286 38.2852 41.0697 38.2852 40.8748V30.4612C38.2852 30.2664 38.4441 30.1074 38.639 30.1074Z" fill="#8AC9FE"/>
<path id="Vector_32" fill-rule="evenodd" clip-rule="evenodd" d="M39.603 30.1074H40.1927C40.3876 30.1074 40.5465 30.2663 40.5465 30.4612V40.8748C40.5465 41.0696 40.3876 41.2286 40.1927 41.2286H39.603C39.7979 41.2286 39.9568 41.0697 39.9568 40.8748V30.4612C39.9568 30.2664 39.7978 30.1074 39.603 30.1074Z" fill="#60B7FF"/>
<path id="Vector_33" fill-rule="evenodd" clip-rule="evenodd" d="M25.6743 35.3952C25.3169 35.5198 24.9262 35.331 24.8016 34.9736C24.677 34.6162 24.8658 34.2254 25.2232 34.1008C27.6671 33.2498 30.1847 32.1561 32.6759 30.7362C34.6962 29.5847 36.7002 28.2171 38.6347 26.5883C38.3192 26.5405 38.0701 26.2763 38.0532 25.9452C38.034 25.567 38.3249 25.2448 38.7031 25.2255L40.5118 25.1274C40.89 25.1081 41.2123 25.3991 41.2315 25.7772C41.2338 25.822 41.2317 25.866 41.2257 25.9087L41.2262 25.9088L40.9652 27.7013C40.9118 28.0765 40.5643 28.3374 40.1891 28.284C39.8343 28.2335 39.5817 27.92 39.6004 27.5687C37.5756 29.2824 35.4736 30.7197 33.3528 31.9285C30.7856 33.3918 28.1918 34.5185 25.6743 35.3952Z" fill="#A79BA7"/>
</g>
<g id="Group_8">
<path id="Vector_34" fill-rule="evenodd" clip-rule="evenodd" d="M12.1201 41.1294H15.029V42.6088C15.029 43.094 14.6321 43.4909 14.147 43.4909H13.0022C12.5171 43.4909 12.1201 43.094 12.1201 42.6088V41.1294Z" fill="#B1B1B5"/>
<path id="Vector_35" fill-rule="evenodd" clip-rule="evenodd" d="M11.2148 38.9995H15.933V40.8449C15.933 41.3301 15.5361 41.727 15.051 41.727H12.097C11.6117 41.727 11.2148 41.3301 11.2148 40.8449V38.9995Z" fill="#D1D1D6"/>
<path id="Vector_36" fill-rule="evenodd" clip-rule="evenodd" d="M14.9059 38.732V40.8451C14.9059 41.3276 14.5117 41.7271 14.0239 41.7271H15.0514C15.5365 41.7271 15.9334 41.3303 15.9334 40.8451V38.7314C15.5977 38.7425 15.2436 38.732 14.9059 38.732Z" fill="#B1B1B5"/>
<path id="Vector_37" fill-rule="evenodd" clip-rule="evenodd" d="M10.333 37.3179H16.8154V39.0811C16.8154 39.5663 16.4185 39.9631 15.9334 39.9631H11.2152C10.73 39.9631 10.3331 39.5663 10.3331 39.0811L10.333 37.3179Z" fill="#ECEFF1"/>
<path id="Vector_38" fill-rule="evenodd" clip-rule="evenodd" d="M15.7882 38.1987V38.9998V39.081C15.7882 39.5662 15.3914 39.963 14.9062 39.963H15.9337C15.9436 39.963 15.9533 39.9629 15.9631 39.9625C16.4347 39.9469 16.8157 39.5563 16.8157 39.0809L16.8158 38.1987H15.7882Z" fill="#D1D1D6"/>
<path id="Vector_39" fill-rule="evenodd" clip-rule="evenodd" d="M13.5742 25.4922C16.5722 25.4922 19.0025 27.9225 19.0025 30.9204C19.0025 33.9352 17.0766 33.755 16.8155 38.1987H10.333C10.0719 33.755 8.146 33.9352 8.146 30.9204C8.146 27.9225 10.5763 25.4922 13.5742 25.4922Z" fill="#FFE177"/>
<path id="Vector_40" fill-rule="evenodd" clip-rule="evenodd" d="M13.0605 25.5162C15.8175 25.775 17.9751 28.0958 17.9751 30.9204C17.9751 33.7207 16.3135 33.7644 15.8678 37.3177C15.8337 37.5899 15.8066 37.8826 15.7881 38.1987H16.8156C17.0768 33.755 19.0026 33.9352 19.0026 30.9204C19.0026 27.9225 16.5723 25.4922 13.5744 25.4922C13.401 25.4922 13.2296 25.5003 13.0605 25.5162Z" fill="#FFD064"/>
<path id="Vector_41" fill-rule="evenodd" clip-rule="evenodd" d="M11.9491 38.1985V32.909H11.3752C10.8385 32.909 10.3511 32.69 9.99818 32.3371C9.64532 31.9842 9.42627 31.4968 9.42627 30.9601C9.42627 30.4234 9.64532 29.9361 9.99818 29.5831C10.3511 29.2303 10.8385 29.0112 11.3752 29.0112C11.9118 29.0112 12.3993 29.2303 12.7521 29.5831C13.105 29.9361 13.3241 30.4234 13.3241 30.9601V31.534H13.8239V30.9601C13.8239 30.4234 14.0429 29.9361 14.3959 29.5831C14.7488 29.2303 15.2362 29.0112 15.7728 29.0112C16.3095 29.0112 16.797 29.2303 17.1498 29.5831C17.5028 29.936 17.7217 30.4234 17.7217 30.9601C17.7217 31.4968 17.5027 31.9842 17.1498 32.3371C16.797 32.69 16.3095 32.909 15.7728 32.909H15.1989V38.1985H13.8239V32.909H13.3242V38.1985H11.9491ZM11.9491 31.5341V30.9602C11.9491 30.8031 11.8843 30.6598 11.7799 30.5554C11.6756 30.4511 11.5323 30.3863 11.3752 30.3863C11.2181 30.3863 11.0747 30.4511 10.9704 30.5554C10.8661 30.6598 10.8013 30.8031 10.8013 30.9602C10.8013 31.1173 10.8661 31.2606 10.9704 31.365C11.0747 31.4693 11.2181 31.5341 11.3752 31.5341H11.9491ZM15.1989 31.5341H15.7728C15.9298 31.5341 16.0732 31.4693 16.1775 31.365C16.2818 31.2606 16.3466 31.1173 16.3466 30.9602C16.3466 30.8031 16.2818 30.6598 16.1775 30.5554C16.0732 30.4511 15.9298 30.3863 15.7728 30.3863C15.6157 30.3863 15.4723 30.4511 15.368 30.5554C15.2637 30.6598 15.1989 30.8031 15.1989 30.9602V31.5341Z" fill="#FFC338"/>
</g>
</g>
</g>
<defs>
<clipPath id="clip0_152_1463">
<rect width="44" height="44" fill="white" transform="translate(0.5 0.866211)"/>
</clipPath>
</defs>
</svg>
