<svg width="41" height="41" viewBox="0 0 41 41" fill="none" xmlns="http://www.w3.org/2000/svg">
<g id="fi_4807765" clip-path="url(#clip0_152_1354)">
<g id="Group">
<path id="Vector" d="M7.54234 35.8121L32.5208 36.6203C36.8631 33.1114 39.6409 27.7433 39.6409 21.7257C39.6409 11.1546 31.0713 2.58496 20.5002 2.58496C9.92898 2.58496 1.35938 11.1546 1.35938 21.7257C1.35945 27.2983 3.74164 32.314 7.54234 35.8121Z" fill="#FFDD40"/>
<path id="Vector_2" d="M19.5713 3.49609H22.3644V5.68461H19.5713V3.49609Z" fill="#1E9EF4"/>
<path id="Vector_3" d="M19.4251 3.49609H17.5918C16.9875 3.49609 16.4976 3.98602 16.4976 4.59031C16.4976 5.19469 16.9875 5.68453 17.5918 5.68453H19.4251C20.0294 5.68453 20.5194 5.19461 20.5194 4.59031C20.5194 3.98602 20.0295 3.49609 19.4251 3.49609Z" fill="#49B1F7"/>
<path id="Vector_4" d="M7.72707 6.65422C7.72145 6.54429 7.58942 6.49031 7.5095 6.56601C7.30864 6.75617 6.89793 7.01969 6.06996 7.23101C4.96184 7.51383 4.87543 8.07648 4.91293 8.56437C4.93403 8.83922 5.09262 9.08484 5.332 9.2214C5.4677 9.29883 5.62254 9.33742 5.77864 9.33078C7.66043 9.25039 7.76684 7.42578 7.72707 6.65422Z" fill="#88CE65"/>
<path id="Vector_5" d="M6.05938 10.2568C5.80282 10.4028 5.51336 10.469 5.22664 10.4572C5.25899 10.6139 5.25524 10.7161 5.24946 10.7661C5.1336 10.7869 4.81492 10.8565 4.49235 11.0362C3.96094 11.3322 3.68 11.7855 3.68 12.3472L3.67985 12.4805C3.67766 13.8054 3.67328 16.54 5.51125 18.0663C5.55352 18.0722 5.59563 18.079 5.6375 18.0882C6.56977 18.2929 7.56344 17.9276 8.13516 17.1115C8.86016 16.0765 9.60485 14.7285 9.60485 13.5579V12.3228C9.60469 10.325 7.46703 9.45622 6.05938 10.2568Z" fill="#FF4155"/>
<g id="Group_2">
<path id="Vector_6" d="M4.94594 18.0882C5.17422 18.038 5.40922 18.038 5.6375 18.0882C3.67141 16.5457 3.74266 13.6619 3.74266 12.3471C3.74266 11.0323 5.30312 10.8207 5.30312 10.8207C5.30312 10.8207 5.33961 10.7037 5.29125 10.4592C5.02609 10.4591 4.76094 10.3917 4.52391 10.2568C3.11625 9.45622 0.978516 10.325 0.978516 12.3228V13.5579C0.978516 14.7285 1.72312 16.0764 2.4482 17.1115C3.02 17.9275 4.01367 18.2929 4.94594 18.0882Z" fill="#E80054"/>
<path id="Vector_7" d="M4.38467 12.4406C4.4617 12.772 4.25545 13.1031 3.92404 13.18C3.59264 13.2571 3.26154 13.0508 3.18459 12.7194C3.10756 12.388 3.31381 12.0569 3.64521 11.98C3.97662 11.903 4.30764 12.1093 4.38467 12.4406Z" fill="#E80054"/>
<path id="Vector_8" d="M5.0706 14.2969C5.18218 13.7413 4.8222 13.2004 4.26657 13.0888C3.71094 12.9773 3.17006 13.3372 3.05848 13.8929C2.9469 14.4485 3.30687 14.9894 3.86251 15.101C4.41814 15.2125 4.95902 14.8526 5.0706 14.2969Z" fill="#E80054"/>
<path id="Vector_9" d="M4.74304 16.6376C5.21531 16.4228 5.42398 15.8657 5.20913 15.3935C4.99427 14.9212 4.43725 14.7125 3.96498 14.9274C3.49271 15.1422 3.28404 15.6993 3.49889 16.1715C3.71375 16.6438 4.27077 16.8525 4.74304 16.6376Z" fill="#E80054"/>
</g>
<path id="Vector_10" d="M7.39115 12.8541C7.7617 12.8541 8.06209 12.5537 8.06209 12.1831C8.06209 11.8126 7.7617 11.5122 7.39115 11.5122C7.0206 11.5122 6.72021 11.8126 6.72021 12.1831C6.72021 12.5537 7.0206 12.8541 7.39115 12.8541Z" fill="#FF7186"/>
<path id="Vector_11" d="M5.29166 11.4185C5.74156 11.4185 6.10627 11.1841 6.10627 10.895C6.10627 10.6059 5.74156 10.3716 5.29166 10.3716C4.84176 10.3716 4.47705 10.6059 4.47705 10.895C4.47705 11.1841 4.84176 11.4185 5.29166 11.4185Z" fill="#E80054"/>
<path id="Vector_12" d="M38.853 12.3049L38.7358 12.1646V15.047C38.7358 15.2884 38.5393 15.4849 38.298 15.4849L38.288 15.4853C37.8322 15.5241 36.8737 15.3426 35.4626 15.8447C35.1509 15.9556 34.8204 15.9985 34.4936 15.9761C34.4995 16.0571 34.5026 16.1006 34.5026 16.1006C34.5026 16.1006 33.6069 16.9053 34.5026 17.6382H38.7677C39.4574 17.6382 40.0217 17.0739 40.0217 16.3842V12.3049C39.326 13.2373 38.853 12.3049 38.853 12.3049Z" fill="#FF4155"/>
<path id="Vector_13" d="M38.7677 8.77734H38.7358V12.2426L38.853 12.3829C38.853 12.3829 39.3261 13.3154 40.0217 12.3829V10.0313C40.0217 9.34164 39.4574 8.77734 38.7677 8.77734Z" fill="#FF7186"/>
<path id="Vector_14" d="M34.6587 16.1005C34.6587 16.1005 34.6558 16.0594 34.6503 15.9826C34.3811 15.9816 34.1121 15.9361 33.8559 15.8451C32.4406 15.3423 31.4829 15.5245 31.0296 15.4852L31.0196 15.4848C30.7782 15.4848 30.5818 15.2884 30.5818 15.0469V8.77734H30.5499C29.8602 8.77734 29.2959 9.34164 29.2959 10.0313V16.3842C29.2959 17.0739 29.8602 17.6382 30.5499 17.6382H34.6587C33.763 16.9053 34.6587 16.1005 34.6587 16.1005Z" fill="#E80054"/>
<path id="Vector_15" d="M34.6585 8.78174L33.9412 8.50846C33.2666 8.25143 32.5507 8.11963 31.8287 8.11963H31.0194C30.7128 8.11963 30.4644 8.36814 30.4644 8.67463V15.0468C30.4644 15.3534 30.7129 15.6019 31.0194 15.6019H31.7992C32.6972 15.6019 33.3903 15.8046 33.8109 15.9535C34.0831 16.0499 34.3691 16.1005 34.6579 16.1005H34.6586L34.6796 15.9216C34.9585 13.5494 34.9515 11.1523 34.6585 8.78174Z" fill="#D3DCFB"/>
<path id="Vector_16" d="M38.2978 8.11963H37.4885C36.7665 8.11963 36.0506 8.25135 35.376 8.50846L34.6587 8.78174V16.1006C34.9462 16.1006 35.2309 16.0514 35.5017 15.955C35.921 15.8058 36.6139 15.6019 37.518 15.6019H38.2978C38.6044 15.6019 38.8529 15.3534 38.8529 15.0468V8.67463C38.8529 8.36814 38.6044 8.11963 38.2978 8.11963Z" fill="#E9EFFF"/>
<g id="Group_3">
<path id="Vector_17" d="M5.30397 11.0707C4.98037 11.0707 4.71803 10.8084 4.71803 10.4847C4.71803 8.98442 3.38178 8.64974 3.22944 8.61653C2.91233 8.55192 2.70959 8.24286 2.7742 7.92575C2.83881 7.60856 3.14998 7.40419 3.46725 7.46903C4.30522 7.63989 5.88991 8.48989 5.88991 10.4847C5.88991 10.8083 5.62756 11.0707 5.30397 11.0707Z" fill="#B4D667"/>
</g>
<g id="Group_4">
<path id="Vector_18" d="M32.8891 10.5405H32.2788C31.9552 10.5405 31.6929 10.2783 31.6929 9.95459C31.6929 9.63092 31.9552 9.36865 32.2788 9.36865H32.8891C33.2127 9.36865 33.4751 9.63092 33.4751 9.95459C33.4751 10.2782 33.2127 10.5405 32.8891 10.5405Z" fill="#BEC8F7"/>
</g>
<g id="Group_5">
<path id="Vector_19" d="M32.8891 12.3833H32.2788C31.9552 12.3833 31.6929 12.121 31.6929 11.7974C31.6929 11.4737 31.9552 11.2114 32.2788 11.2114H32.8891C33.2127 11.2114 33.4751 11.4737 33.4751 11.7974C33.4751 12.121 33.2127 12.3833 32.8891 12.3833Z" fill="#BEC8F7"/>
</g>
<g id="Group_6">
<path id="Vector_20" d="M32.8891 14.2256H32.2788C31.9552 14.2256 31.6929 13.9633 31.6929 13.6396C31.6929 13.316 31.9552 13.0537 32.2788 13.0537H32.8891C33.2127 13.0537 33.4751 13.316 33.4751 13.6396C33.4751 13.9632 33.2127 14.2256 32.8891 14.2256Z" fill="#BEC8F7"/>
</g>
<g id="Group_7">
<path id="Vector_21" d="M37.0385 10.5405H36.4282C36.1046 10.5405 35.8423 10.2783 35.8423 9.95459C35.8423 9.63092 36.1046 9.36865 36.4282 9.36865H37.0385C37.3621 9.36865 37.6245 9.63092 37.6245 9.95459C37.6245 10.2782 37.3621 10.5405 37.0385 10.5405Z" fill="#BEC8F7"/>
</g>
<g id="Group_8">
<path id="Vector_22" d="M37.0385 12.3833H36.4282C36.1046 12.3833 35.8423 12.121 35.8423 11.7974C35.8423 11.4737 36.1046 11.2114 36.4282 11.2114H37.0385C37.3621 11.2114 37.6245 11.4737 37.6245 11.7974C37.6245 12.121 37.3621 12.3833 37.0385 12.3833Z" fill="#BEC8F7"/>
</g>
<g id="Group_9">
<path id="Vector_23" d="M37.0385 14.2256H36.4282C36.1046 14.2256 35.8423 13.9633 35.8423 13.6396C35.8423 13.316 36.1046 13.0537 36.4282 13.0537H37.0385C37.3621 13.0537 37.6245 13.316 37.6245 13.6396C37.6245 13.9632 37.3621 14.2256 37.0385 14.2256Z" fill="#BEC8F7"/>
</g>
<path id="Vector_24" d="M29.4993 21.531C26.3381 25.871 25.6105 28.9251 28.8141 30.0503C31.7302 31.0746 33.9086 31.8014 34.2759 35.0096C37.5965 31.5673 39.6406 26.8858 39.6406 21.7253C39.6406 21.4692 39.634 21.2146 39.6241 20.961C37.2129 19.9477 31.9019 18.2325 29.4993 21.531Z" fill="#FFE98D"/>
<path id="Vector_25" d="M11.2099 30.0503C14.4134 28.9251 13.6859 25.871 10.5247 21.531C8.41344 18.6325 4.05672 19.6054 1.395 20.5716C1.37227 20.9534 1.35938 21.3378 1.35938 21.7253C1.35938 26.452 3.07367 30.7774 5.91328 34.1165C6.56117 31.6535 8.58656 30.9717 11.2099 30.0503Z" fill="#FFE98D"/>
<path id="Vector_26" d="M23.7417 30.2395C23.2443 29.7422 23.0393 29.0115 22.9585 28.5898C22.7231 28.8298 22.4846 29.04 22.2535 29.2195C21.5915 29.7335 20.7746 30.0127 19.9334 30.0127C19.8771 30.0127 19.8209 30.0112 19.7648 30.0087L19.791 30.054C19.8047 30.4329 19.8897 33.8303 18.6111 35.1613C18.5421 35.1772 18.4056 35.2138 18.2485 35.2826C18.7733 35.4778 19.3405 35.5856 19.9333 35.5856C22.4957 35.5856 24.5913 33.5923 24.7573 31.0718C24.5912 30.9763 24.2469 30.7448 23.7417 30.2395Z" fill="#FFAA7B"/>
<path id="Vector_27" d="M16.9081 28.5898C16.8273 29.0115 16.6223 29.7422 16.125 30.2395C15.6198 30.7447 15.2755 30.9763 15.1094 31.0719C15.242 33.0864 16.6078 34.763 18.459 35.3554C18.5907 35.3102 18.6834 35.2932 18.6834 35.2932C20.1245 33.8522 19.9333 30.0127 19.9333 30.0127C19.092 30.0127 18.2752 29.7335 17.6132 29.2195C17.382 29.0401 17.1436 28.8299 16.9081 28.5898Z" fill="#FC9460"/>
<path id="Vector_28" d="M24.8719 31.1308C24.8719 31.1308 24.8289 31.1136 24.7463 31.0654C24.5221 33.528 22.4543 35.4578 19.9333 35.4578C19.4053 35.4578 18.8976 35.3721 18.4221 35.2157C18.1524 35.3067 17.7228 35.5104 17.5192 35.9258C17.3582 36.2548 17.3718 36.6447 17.5593 37.0873C17.4687 37.0923 17.3524 37.1007 17.2173 37.1139C18.0403 37.5062 18.9608 37.7269 19.9332 37.7269C23.2997 37.7269 26.0512 35.0957 26.2444 31.7778C25.4116 31.4057 24.8719 31.1308 24.8719 31.1308Z" fill="#73C3F9"/>
<path id="Vector_29" d="M18.6833 35.2932C16.7575 34.7787 15.3061 33.1055 15.1203 31.0654C15.0377 31.1136 14.9947 31.1308 14.9947 31.1308C14.9947 31.1308 14.455 31.4056 13.6221 31.7778C13.7656 34.2419 15.3207 36.3262 17.4903 37.2363C17.6753 37.2239 17.7829 37.2235 17.7829 37.2235C16.9382 35.6079 18.6832 35.2932 18.6833 35.2932Z" fill="#49B1F7"/>
<g id="Group_10">
<path id="Vector_30" d="M26.945 15.7365C26.6252 14.8451 25.6703 12.7613 23.5876 12.2055C23.4767 12.1759 23.4473 12.0323 23.5376 11.9613L23.8497 11.7161C23.9912 11.6049 23.9369 11.3791 23.7601 11.3449C22.9594 11.1905 21.1901 10.9252 19.4547 11.1666C19.3194 11.4358 19.2239 11.7606 19.282 12.0974C19.3649 12.5776 19.736 12.9687 20.3849 13.2595C20.7982 13.4448 21.0235 13.6859 21.0546 13.9762C21.1301 14.6806 20.0961 15.6088 19.6913 15.9071L19.6254 15.9557L19.6273 16.1138C19.9997 16.1639 20.3829 16.1313 20.7404 16.0124C21.519 15.7534 22.6385 15.531 23.5499 15.9412C24.0036 16.1454 24.7422 16.7999 24.591 18.8895C24.5442 19.5352 24.8435 19.7368 25.0383 20.2452C25.1562 20.5528 25.2103 20.8371 25.2244 21.1223H25.8433C25.864 20.2792 26.0046 18.0478 26.8857 16.4582C27.0084 16.2371 27.0303 15.9745 26.945 15.7365Z" fill="#6E5D76"/>
<path id="Vector_31" d="M19.7857 16.0355C19.7857 16.0355 22.5046 14.0352 20.4499 13.1141C19.1568 12.5344 19.3376 11.6884 19.6492 11.1406C17.9885 11.336 16.3248 11.9745 15.5348 13.599C15.4402 13.7935 15.2619 13.9336 15.0524 13.9878C14.5912 14.1072 13.7615 14.467 13.2208 15.5452C13.115 15.7561 13.097 16.0007 13.1728 16.2241C13.4357 16.9986 14.0759 19.0782 14.1427 21.122H14.6967C14.7107 20.8327 14.7664 20.5445 14.8884 20.2309C15.0701 19.7645 15.3771 19.5266 15.3308 18.8965C15.1769 16.8016 15.9167 16.1456 16.3714 15.9411C17.225 15.557 18.2892 15.7157 19.1808 16.0123C19.3771 16.0775 19.5812 16.1165 19.787 16.1308L19.7857 16.0355Z" fill="#56415E"/>
<g id="Group_11">
<path id="Vector_32" d="M26.2975 20.7811C26.0356 20.541 25.4499 20.6627 25.2243 20.8097C25.2738 21.1175 25.2766 21.4323 25.2338 21.7432L24.9676 23.6823C24.9676 23.8386 24.9627 23.992 24.9536 24.1426C25.6028 24.3385 25.9892 23.7557 26.0435 23.3557C26.0668 23.1835 26.1051 23.0138 26.1581 22.8482C26.3308 22.3089 26.9538 21.3825 26.2975 20.7811Z" fill="#FFAA7B"/>
</g>
<g id="Group_12">
<path id="Vector_33" d="M13.6236 20.7811C13.8855 20.541 14.4711 20.6627 14.6968 20.8097C14.6473 21.1175 14.6445 21.4323 14.6872 21.7432L14.9535 23.6823C14.9535 23.8386 14.9584 23.992 14.9675 24.1426C14.3182 24.3385 13.9319 23.7557 13.8776 23.3557C13.8543 23.1835 13.816 23.0138 13.763 22.8482C13.5902 22.3089 12.9672 21.3825 13.6236 20.7811Z" fill="#FC9460"/>
</g>
<path id="Vector_34" d="M25.1279 20.2106C25.068 20.0543 24.9925 19.896 24.8973 19.7467C24.7361 19.4938 24.6652 19.1945 24.6868 18.8963C24.749 18.0383 24.7156 16.3603 23.5894 15.8535C22.6326 15.423 21.4588 15.6723 20.7102 15.9212C20.3422 16.0436 19.9509 16.0729 19.5715 16.0099C18.8783 16.7276 18.8639 18.0656 18.918 18.803C18.9403 19.1065 18.8656 19.41 18.7016 19.6674C18.6071 19.8157 18.5315 19.9728 18.471 20.1281C18.2748 20.6322 18.2176 21.1788 18.2911 21.7141L18.5641 23.7026C18.5641 26.5614 20.0902 28.5045 21.3883 29.5125C21.4855 29.5881 21.5873 29.6565 21.6908 29.7217C21.8963 29.616 22.0929 29.492 22.2771 29.3489C23.5432 28.3658 25.0315 26.4706 25.0315 23.6823L25.2978 21.7432C25.3687 21.2263 25.3149 20.6985 25.1279 20.2106Z" fill="#FFC7AB"/>
<g id="Group_13">
<path id="Vector_35" d="M21.399 29.349C20.1329 28.3659 18.6445 26.4706 18.6445 23.6824L18.3782 21.7429C18.3065 21.2209 18.3623 20.6877 18.5536 20.196C18.6126 20.0445 18.6864 19.8913 18.7786 19.7467C18.9386 19.4957 19.0115 19.1996 18.9897 18.9036C18.933 18.1318 18.9525 16.6848 19.7855 16.0355C19.591 16.0212 19.3979 15.9835 19.2108 15.9212C18.4623 15.6723 17.2886 15.423 16.3318 15.8535C15.2022 16.3617 15.172 18.0478 15.2348 18.9035C15.2565 19.1995 15.1837 19.4956 15.0237 19.7467C14.9315 19.8913 14.8578 20.0444 14.7988 20.196C14.6075 20.6875 14.5516 21.2207 14.6233 21.7428L14.8896 23.6823C14.8896 26.4706 16.378 28.3658 17.6441 29.3489C18.305 29.8621 19.1205 30.1409 19.9604 30.1409C20.6229 30.1409 21.2697 29.9668 21.8379 29.6418C21.6856 29.5548 21.5386 29.4574 21.399 29.349Z" fill="#FFAA7B"/>
</g>
</g>
<path id="Vector_36" d="M32.1941 35.3061C31.9342 34.3224 31.1759 33.5483 30.1987 33.265C28.7378 32.8414 27.2627 32.2332 26.2363 31.7744C25.9825 35.0336 23.2575 37.5993 19.9332 37.5993C19.1068 37.5993 18.3175 37.4405 17.594 37.1521C17.2677 37.2197 14.581 37.8512 15.3503 40.1641C16.9889 40.6208 18.7156 40.8663 20.4999 40.8663C25.0535 40.8663 29.2347 39.2752 32.5206 36.62C32.4053 36.1267 32.2946 35.6865 32.1941 35.3061Z" fill="#49B1F7"/>
<path id="Vector_37" d="M17.7829 37.2238L17.7832 37.2229C15.4991 36.3967 13.8264 34.2932 13.6302 31.7744C12.6039 32.2332 11.1287 32.8414 9.66777 33.265C8.69059 33.5483 7.9323 34.3224 7.67238 35.3061C7.63059 35.4644 7.58691 35.6335 7.54199 35.8119C9.76965 37.8621 12.4848 39.3907 15.4937 40.2043C14.7189 37.7752 17.7829 37.2238 17.7829 37.2238Z" fill="#1E9EF4"/>
<path id="Vector_38" d="M15.31 7.5774C14.7057 7.5774 14.2158 7.08748 14.2158 6.48318V2.69725C14.2158 2.09295 14.7057 1.60303 15.31 1.60303C15.9144 1.60303 16.4043 2.09295 16.4043 2.69725V6.48318C16.4043 7.08748 15.9143 7.5774 15.31 7.5774Z" fill="#49B1F7"/>
<path id="Vector_39" d="M17.4141 4.24225C16.8098 4.24225 16.3199 3.7524 16.3198 3.14811V7.21975C16.3198 7.82404 16.8097 8.31396 17.414 8.31396C18.0183 8.31396 18.5083 7.82404 18.5083 7.21975V3.14795C18.5083 3.75232 18.0184 4.24225 17.4141 4.24225Z" fill="#73C3F9"/>
<path id="Vector_40" d="M25.397 7.5774C26.0013 7.5774 26.4912 7.08748 26.4912 6.48318V2.69725C26.4912 2.09295 26.0013 1.60303 25.397 1.60303C24.7926 1.60303 24.3027 2.09295 24.3027 2.69725V6.48318C24.3027 7.08748 24.7927 7.5774 25.397 7.5774Z" fill="#49B1F7"/>
<path id="Vector_41" d="M23.2929 4.24217C22.6886 4.24217 22.1987 3.75225 22.1987 3.14795V7.21975C22.1987 7.82404 22.6887 8.31396 23.2929 8.31396C23.8972 8.31396 24.3872 7.82404 24.3872 7.21975V3.14803C24.3872 3.75225 23.8972 4.24217 23.2929 4.24217Z" fill="#73C3F9"/>
<path id="Vector_42" d="M17.4141 0.866211C16.8098 0.866211 16.3198 1.35613 16.3198 1.96043V3.30434C16.3198 3.90863 16.8097 4.39855 17.414 4.39855C18.0183 4.39855 18.5083 3.90863 18.5083 3.30434V1.96043C18.5083 1.35613 18.0184 0.866211 17.4141 0.866211Z" fill="#9BD8F9"/>
<path id="Vector_43" d="M23.2929 0.866211C22.6886 0.866211 22.1987 1.35613 22.1987 1.96043V3.30434C22.1987 3.90863 22.6887 4.39855 23.2929 4.39855C23.8972 4.39855 24.3872 3.90863 24.3872 3.30434V1.96043C24.3872 1.35613 23.8973 0.866211 23.2929 0.866211Z" fill="#9BD8F9"/>
</g>
</g>
<defs>
<clipPath id="clip0_152_1354">
<rect width="40" height="40" fill="white" transform="translate(0.5 0.866211)"/>
</clipPath>
</defs>
</svg>
